<?xml version="1.0" standalone="no"?>
<!DOCTYPE svg PUBLIC "-//W3C//DTD SVG 1.1//EN" "http://www.w3.org/Graphics/SVG/1.1/DTD/svg11.dtd" >
<svg xmlns="http://www.w3.org/2000/svg">
<metadata>Generated by IcoMoon</metadata>
<defs>
<font id="icomoon" horiz-adv-x="1024">
<font-face units-per-em="1024" ascent="960" descent="-64" />
<missing-glyph horiz-adv-x="1024" />
<glyph unicode="&#x20;" d="" horiz-adv-x="512" />
<glyph unicode="&#xe600;" d="M981.313 460.469c0-313.615-73.798-323.363-176.881-323.363-104.157 0-116.104 68.367-116.104 68.367s-119.356-67.293-207.25-67.293c-67.293 0-183.396 9.788-183.396 273.448 0 186.659 49.925 288.658 227.87 288.658 61.852 0 143.26-29.294 143.26-29.294v19.526h37.958v-217.028c0-273.458 5.411-303.817 103.093-303.817 78.135 0 131.293 9.758 131.293 290.806v19.536c0 286.469-110.672 413.435-416.698 413.435-300.554 0-441.625-116.114-441.625-462.266 0-360.267 141.071-464.444 441.625-464.444 43.42 0 155.176 10.852 155.176 10.852l3.273-35.81c0 0-106.355-9.758-158.449-9.758-321.175 0-481.772 107.43-481.772 499.16 0 366.763 160.597 496.971 481.772 496.971 330.993 0 456.855-141.061 456.855-449.235v-18.452zM680.729 238.010c0 0-11.917 123.703-11.917 235.47v162.766c0 0-79.24 29.294-143.26 29.294-154.092 0-189.892-92.23-189.892-257.165 0-215.944 84.641-235.48 145.408-235.48 74.872 0.010 199.66 65.114 199.66 65.114z" />
<glyph unicode="&#xe601;" d="M1013.961 430.080c0-27.608-22.588-50.196-50.196-50.196h-903.529c-27.608 0-50.196 22.588-50.196 50.196v0c0 27.608 22.588 50.196 50.196 50.196h903.529c27.608 0 50.196-22.588 50.196-50.196v0zM1013.961-11.645c0-27.608-22.588-50.196-50.196-50.196h-903.529c-27.608 0-50.196 22.588-50.196 50.196v0c0 27.608 22.588 50.196 50.196 50.196h903.529c27.608 0 50.196-22.588 50.196-50.196v0zM1013.961 874.315c0-27.608-22.588-50.196-50.196-50.196h-903.529c-27.608 0-50.196 22.588-50.196 50.196v0c0 27.608 22.588 50.196 50.196 50.196h903.529c27.608 0 50.196-22.588 50.196-50.196v0z" />
<glyph unicode="&#xe602;" d="M701.841 568.582l46.126 27.659c7.513 4.518 17.285 2.073 21.804-5.451l76.717-127.891c4.539-7.523 2.093-17.306-5.431-21.804l-47.39-28.426c2.311-1.306 4.28-3.212 5.731-5.617l207.779-346.25c4.529-7.545 2.083-17.306-5.431-21.804l-171.602-102.947c-7.513-4.518-17.275-2.083-21.804 5.441l-182.027 303.389c-4.798-16.777-13.918-30.063-27.483-38.219-23.648-14.187-54.738-9.098-85.858 10.591-24.622 15.596-49.857 40.685-71.111 72.376l-21.618-12.995c-0.829-7.772-5.192-15.13-12.425-19.483-12.269-7.337-28.178-3.379-35.546 8.892-7.337 12.249-3.368 28.167 8.892 35.546 7.016 4.166 15.224 4.684 22.322 2.052l22.052 13.234c-17.98 33.659-28.25 67.702-30.426 96.77-2.735 36.727 7.41 66.531 31.069 80.749 13.575 8.135 29.576 9.928 46.623 6.27l-179.219 298.694c-4.518 7.523-2.083 17.285 5.441 21.804l171.581 102.957c7.523 4.518 17.285 2.073 21.793-5.451l207.779-346.271c0.746-1.234 1.295-2.507 1.658-3.813v0zM504.342 364.171c7.523 4.508 17.275 2.062 21.793-5.451 4.508-7.534 2.083-17.275-5.431-21.793l-51.525-30.923c18.57-27.421 40.022-48.841 60.748-61.94 20.871-13.234 40.054-17.649 52.582-10.145 12.508 7.523 17.618 26.519 15.783 51.163-0.684 9.285-2.394 19.244-5.088 29.628-0.259 0.736-0.456 1.513-0.611 2.28-5.285 19.442-13.98 40.281-26.021 61.007l-0.29 0.498-0.021 0.021-0.021 0.052-0.891 1.513v0.021l-0.321 0.508-0.632 1.057-0.911 1.534-0.041 0.052-0.28 0.456-0.601 1.005-0.072 0.103-0.228 0.393c-11.223 18.083-23.742 33.918-36.685 46.935l-1.658 1.658-0.362 0.373-0.218 0.177-0.146 0.177-0.383 0.352-0.342 0.342-0.238 0.218-0.124 0.146-0.383 0.331-0.362 0.342-0.373 0.362-0.041 0.021c-3.576 3.399-7.181 6.57-10.798 9.503-3.368 1.078-6.383 3.274-8.436 6.456-2.217 1.565-4.394 3.036-6.591 4.425-20.882 13.203-40.074 17.628-52.572 10.114-12.529-7.513-17.659-26.519-15.804-51.163 1.814-24.436 10.622-53.463 26.084-82.728l51.515 30.923zM381.944 713.924l144.306 86.604-52.893 88.159-144.347-86.594 52.934-88.169zM451.169 598.49l144.337 86.604-52.914 88.18-144.306-86.604 52.883-88.18zM611.869 657.839l-144.326-86.594 52.914-88.18 144.326 86.604-52.914 88.169zM780.33 377.083l-144.337-86.573 52.893-88.211 144.357 86.615-52.914 88.169zM849.587 261.65l-144.337-86.584 52.924-88.169 144.316 86.594-52.903 88.159zM918.844 146.226l-144.326-86.584 52.893-88.18 144.337 86.615-52.903 88.149zM336.429 372.42c-39.359 13.379-69.557 41.463-86.573 76.024-17.016 34.571-20.851 75.65-7.451 114.999 1.544 4.539 3.274 8.943 5.203 13.223 7.751 17.295 11.845 13.036 21.4 6.694l18.778-13.172c10.27-6.498 9.172-8 3.876-23.534-8.736-25.741-6.249-52.613 4.892-75.226 11.13-22.613 30.882-40.975 56.634-49.763 18.954-6.435 25.006-3.782 28.219-19.286l3.389-18.363c1.482-10.891 3.823-21.13-17.472-18.644-10.291 1.213-20.674 3.533-30.892 7.047v0zM265.804 164.847c49.224-16.736 99.413-20.954 148.244-18.644 12.777 0.601 12.777 7.171 11.119 15.917-1.368 7.254-2.539 14.829-4.010 22.508-1.834 9.659-1.275 14.031-17.234 13.057-39.98-2.414-81.091 2.746-121.351 16.446-83.029 28.26-146.804 87.547-182.7 160.472-35.918 72.946-44.002 159.633-15.732 242.661 6.922 20.415 15.928 40.126 26.83 58.717 7.586 12.943 4.611 14.612-2.507 19.928l-21.099 14.819c-8.073 5.078-12.073 7.192-20.778-7.523-12.684-21.493-23.379-44.603-31.721-69.143-32.914-96.646-23.493-197.509 18.301-282.425 41.815-84.925 115.994-153.891 212.64-186.794v0zM301.64 270.137c28.147-9.575 56.81-13.959 84.956-13.855 19.037 0.083 19.763 4.777 18.052 17.213-0.757 5.399-1.731 10.706-2.487 15.991-2.632 18.395-4.726 18.073-26.55 19.089-19.037 0.85-38.271 4.384-57.204 10.85-53.991 18.363-95.433 56.903-118.771 104.305-23.337 47.411-28.581 103.755-10.208 157.716 3.876 11.399 8.58 22.26 14.218 32.457 6.062 10.975 3.161 12.954-3.938 18.042l-21.928 15.379c-7.814 5.575-11.938 6.011-19.825-8.446-6.984-12.798-12.954-26.385-17.814-40.654-23.016-67.578-16.425-138.119 12.808-197.489 29.214-59.35 81.091-107.599 148.69-130.595z" />
<glyph unicode="&#xe603;" d="M988.501-45.919c-10.993-10.993-31.162-8.814-44.835 4.849l-902.305 902.305c-13.663 13.663-15.852 33.842-4.849 44.845 10.993 10.993 31.172 8.814 44.835-4.859l902.295-902.305c13.673-13.673 15.852-33.842 4.859-44.835zM81.348-41.070c-13.663-13.663-33.842-15.842-44.835-4.849-11.003 10.993-8.814 31.162 4.849 44.835l902.305 902.305c13.663 13.663 33.842 15.852 44.835 4.849s8.814-31.172-4.849-44.845l-902.305-902.295z" />
<glyph unicode="&#xe604;" d="M925.716 785.87h-827.442c-45.608 0-82.733-37.105-82.733-82.743v-546.103c0-18.502 6.325-35.418 16.625-49.222-0.12-4.377 1.426-8.794 4.769-12.127 3.223-3.233 7.459-4.849 11.696-4.849 0.151 0 0.271 0.090 0.412 0.090 13.794-10.29 30.73-16.625 49.232-16.625h827.442c45.618 0 82.743 37.125 82.743 82.733v546.103c0 45.638-37.125 82.743-82.743 82.743zM676.151 430.18l294.239 294.209c3.112-6.455 4.979-13.603 4.979-21.253v-546.103c0-3.203-0.371-6.345-0.964-9.407l-298.255 282.554zM925.716 752.781c7.64 0 14.798-1.877 21.263-4.979l-342.538-342.548h-184.882l-342.548 342.538c6.475 3.112 13.623 4.979 21.263 4.979h827.442zM48.63 703.127c0 7.65 1.867 14.808 4.979 21.253l294.33-294.3-294.33-294.32c-3.112 6.465-4.979 13.613-4.979 21.263v546.103zM98.274 107.369c-7.64 0-14.798 1.877-21.263 4.979l294.32 294.32 34.515-34.515h212.289l34.615 34.615 304.098-288.085c-8.553-6.967-19.305-11.314-31.142-11.314h-827.432z" />
<glyph unicode="&#xe605;" d="M44.544 519.389c2.429-34.133 28.572-64.211 43.901-79.079-6.827-14.165-15.691-35.378-15.691-49.754 0-17.237 0-69.722 51.551-97.25 38.551-20.58 172.976-5.1 233.241 3.182-5.833-35.208-16.434-99.027-18.402-111.164-0.522-3.112-2.49-7.449-4.979-12.971-6.666-14.778-16.735-37.105-18.211-77.975-1.697-45.297 9.116-110.893 45.176-146.623 16.936-16.786 37.808-25.028 60.536-24.074 17.277 0.793 32.055 7.61 42.717 19.697 25.831 29.264 21.675 82.161 19.667 107.58-0.311 3.885-0.582 6.937-0.602 8.413 1.365 14.788 42.034 109.116 82.342 175.174 14.005 23.040 28.692 41.412 42.908 59.191 24.787 30.981 48.228 60.265 58.107 104.348 10.12 45.016 60.928 63.508 60.677 63.508 9.597 2.419 16.033 6.746 20.53 11.917 9.367-6.295 20.319-10.19 31.724-10.19l145.117 0.231c27.287 0.11 51.2 21.373 54.433 48.419l0.522 370.266c-0.803 27.628-23.923 48.098-51.561 48.098l-235.962-1.827c-11.565 0-22.006-3.403-29.455-12.85-4.036-5.15-6.746-10.491-8.624-17.237-26.995 5.682-99.348 21.092-130.269 23.512-21.363 1.596-26.805 3.112-36.663 5.391-6.606 1.516-14.798 3.544-29.596 6.064-13.563 2.319-31.142 3.152-50.989 3.152-18.914 0-39.886-0.653-61.44-1.375-21.434-0.703-43.108-1.426-62.926-1.426-64.452 0-93.485-16.384-154.222-59.794-37.888-27.046-41.472-60.366-37.798-83.566 1.486-9.357 4.247-17.689 7.108-24.435-20.209-13.061-42.426-39.856-42.386-85.845 0.131-35.74 11.455-57.976 22.297-71.108-15.972-15.641-36.021-44.594-32.778-89.6zM690.066 896.251c1.215 1.536 2.008 1.616 2.53 1.636l235.63-0.191c8.925 0 16.675-7.519 16.926-15.932l-0.392-366.482c-1.566-9.166-10.702-17.047-19.988-17.077l-145.187-0.241c-9.919 0-20.751 8.915-22.699 18.542l-69.773 358.41c-2.048 8.925-0.050 17.488 2.952 21.333zM112.61 593.127l27.297 15.621-27.929 15.009c-0.924 0.482-22.147 12.398-22.307 56.42-0.030 49.272 32.447 60.155 35.96 61.179l24.275 6.415-14.597 20.43c-0.080 0.11-8.292 11.927-10.772 27.598-3.172 19.978 4.598 36.322 23.693 49.985 56.43 40.307 79.27 53.338 134.094 53.338 20.189 0 42.245 0.723 64.070 1.456 40.528 1.335 82.452 2.721 105.432-1.195 13.844-2.389 21.494-4.156 27.668-5.582 10.732-2.46 17.84-4.106 41.793-5.913 31.684-2.49 115.592-20.189 132.658-23.833l67.765-348.22c-0.241-1.667-0.492-3.343-0.211-5.090 1.697-10.451 1.094-13.523 0.703-14.296-0.020-0.020-0.743-0.653-4.548-1.677-2.851-0.984-70.174-24.666-84.671-89.108-8.142-36.282-27.206-60.115-51.341-90.303-14.226-17.759-30.318-37.868-45.458-62.795-36.091-59.171-87.371-168.86-87.371-192.793 0-2.46 0.281-6.455 0.683-11.545 1.486-19.044 5.010-63.659-11.093-81.93-4.498-5.090-10.31-7.64-18.332-7.991-13.171-0.572-24.405 3.996-34.555 14.065-22.759 22.558-36.804 71.058-34.947 120.732 1.245 34.083 8.995 51.22 15.199 65.004 3.243 7.188 6.315 13.975 7.58 21.584 2.751 16.936 22.267 134.495 22.267 134.495l3.915 23.572-23.612-3.604c-82.211-12.529-209.549-24.014-235.279-10.28-33.23 17.739-33.23 50.788-33.23 66.68 0 7.459 9.176 29.576 17.749 45.538l6.736 12.599-11.073 9.035c-10.973 8.965-39.856 37.918-41.723 64.1-3.534 49.313 32.115 70.485 33.511 71.299z" />
<glyph unicode="&#xe606;" d="M983.201-33.37h-937.592c-16.163 0-29.294 13.121-29.294 29.315v702.354c0 16.183 13.141 29.304 29.294 29.304h309.298c16.183 0 29.304-13.121 29.304-29.304s-13.121-29.284-29.304-29.284h-279.984v-643.785h878.973v643.775h-280.014c-16.183 0-29.294 13.111-29.294 29.284 0 16.183 13.111 29.304 29.294 29.304h309.318c16.163 0 29.294-13.121 29.294-29.304v-702.374c0-16.163-13.131-29.284-29.294-29.284zM514.399 149.333c-7.489 0-14.999 2.861-20.731 8.584l-180.867 180.867c-11.425 11.435-11.425 29.997 0 41.432 11.445 11.455 29.977 11.455 41.442 0l130.861-130.841v614.872c0 16.173 13.111 29.284 29.284 29.284 16.163 0 29.294-13.121 29.294-29.284l-0.010-612.713 131.062 128.863c11.475 11.334 29.987 11.214 41.331-0.251 11.364-11.455 11.324-29.937-0.080-41.352l-180.867-180.867c-5.732-5.732-13.232-8.594-20.721-8.594z" />
<glyph unicode="&#xe607;" d="M777.738 770.389v90.855c0 25.048-20.36 45.327-45.367 45.327-25.058 0-45.387-20.279-45.387-45.327v-90.845c0-25.058 20.36-45.347 45.387-45.347 25.038 0 45.367 20.279 45.367 45.337zM289.902 725.052c18.783 0 34.043 15.149 34.043 34.113v113.272c0 18.824-15.199 34.133-34.043 34.133h-22.689c-18.793 0-34.033-15.149-34.033-34.133v-113.212c0-18.884 15.209-34.173 34.033-34.173h22.689zM369.323 815.817h272.284v-114.327h-272.284v114.327zM6.275-1.034c0-45.377 49.915-45.377 49.915-45.377h903.068c0 0 45.387 0 45.387 45.377v816.851h-181.509v-114.327l136.132-0.161v-703.327l-907.605 0.964v702.524h136.463l-0.321 114.327h-181.529v-816.851zM706.811 403.205c-8.262 16.444-3.905 7.72 0 0v0z" />
<glyph unicode="&#xe608;" d="M642.429 141.744c-63.327-0.070-147.376 24.355-149.635 116.043-0.040 77.051 82.322 116.234 149.464 116.274 7.62 0.020 15.3-0.402 22.96-1.305-0.040 49.503-0.070 98.997-0.1 148.5-0.030 11.334-0.030 22.669-0.030 34.003-1.646 48.339 28.461 81.187 75.525 89.68l0.793 0.151 0.803 0.131 45.799 6.716c-0.883 1.385-1.767 2.771-2.66 4.166-62.414 96.447-158.017 158.499-262.124 180.796-104.097 22.297-216.727 4.909-313.183-57.505-96.467-62.404-158.489-158.027-180.796-262.134-22.327-104.127-4.909-216.747 57.505-313.203 62.404-96.437 158.017-158.489 262.124-180.796s216.727-4.909 313.193 57.505c55.557 35.96 99.699 82.924 131.403 136.182-2.6 2.289-5.070 4.658-7.419 7.128-19.948-54.613-87.16-82.312-143.621-82.332zM415.734 335.26c-24.255 5.22-46.542 19.657-61.089 42.155-14.547 22.468-18.603 48.73-13.402 72.975 5.2 24.265 19.657 46.552 42.135 61.109 22.488 14.537 48.74 18.593 72.995 13.402 24.265-5.21 46.552-19.657 61.089-42.155 14.547-22.478 18.603-48.73 13.392-72.985-5.19-24.265-19.657-46.552-42.135-61.099-22.478-14.537-48.72-18.593-72.985-13.402zM1007.546 564.344c0 9.005-0.010 18.040-0.020 27.046-0.873 24.305-8.112 42.215-38.139 37.266-73.336-10.782-146.643-21.554-219.979-32.336-27.738-5.020-35.79-20.239-34.906-40.087 0.010-11.656 0.020-23.311 0.020-34.957 0.070-72.393 0.11-144.796 0.181-217.188-18.251 12.7-43.952 20.6-72.403 20.57-55.286-0.040-100.111-29.957-100.081-66.821 0.030-36.854 44.895-66.721 100.171-66.68 55.306 0.050 100.121 29.967 100.081 66.831-0.060 89.128-0.11 168.548-0.171 257.656 79.159 11.656 158.339 23.281 237.508 34.916 0.060-73.678 0.1-137.648 0.171-211.346-18.251 12.7-43.952 20.621-72.403 20.6-55.296-0.040-100.111-29.967-100.081-66.821 0.030-36.864 44.895-66.721 100.171-66.68 55.306 0.020 100.111 29.957 100.081 66.821-0.070 90.383-0.131 180.796-0.201 271.209z" />
<glyph unicode="&#xe609;" d="M792.024 293.707c-65.897 0-123.743-34.926-156.321-87.16l-241.463 135.479c14.105 26.042 22.106 55.828 22.106 87.442 0 21.484-3.885 42.054-10.652 61.219 6.335 3.484 13.181 7.319 20.922 11.706 28.009 15.681 65.235 36.653 102.47 57.705l123.884 70.064c33.882-38.902 83.576-63.608 139.053-63.608 101.647 0 184.35 82.703 184.35 184.32 0 101.687-82.703 184.39-184.35 184.39-101.657 0-184.36-82.703-184.36-184.39 0-23.010 4.417-44.986 12.178-65.345-87.703-49.594-197.732-111.757-245.81-138.601-33.872 40.829-84.942 66.911-142.035 66.911-101.647 0-184.36-82.703-184.36-184.36 0-101.697 82.703-184.39 184.36-184.39 46.441 0 88.867 17.428 121.314 45.899l258.048-144.745c-2.429-11.977-3.694-24.295-3.694-36.944 0-101.687 82.703-184.39 184.36-184.39 101.647 0 184.35 82.703 184.35 184.39 0 101.667-82.703 184.41-184.35 184.41zM792.024 870.741c66.068 0 119.798-53.8 119.798-119.878 0-65.998-53.73-119.798-119.798-119.798-66.078 0-119.838 53.8-119.838 119.798 0 66.078 53.76 119.878 119.838 119.878zM231.986 309.65c-66.078 0-119.838 53.75-119.838 119.818 0 66.038 53.76 119.848 119.838 119.848 66.088 0 119.808-53.8 119.808-119.848 0-66.078-53.73-119.818-119.808-119.818zM792.024-10.511c-66.078 0-119.838 53.73-119.838 119.808s53.76 119.798 119.838 119.798c66.068 0 119.798-53.73 119.798-119.808s-53.73-119.798-119.798-119.798z" />
<glyph unicode="&#xe60a;" d="M748.142 582.415h-173.096v126.333c0 38.751 40.067 47.736 58.79 47.736 18.593 0 111.827 0 111.827 0v170.496l-128.161 0.663c-174.853 0-214.769-127.127-214.769-208.635v-136.594h-126.876v-175.666h126.876c0-225.511 0-474.232 0-474.232h172.313c0 0 0 251.272 0 474.232h146.382l26.714 175.666z" />
<glyph unicode="&#xe60b;" d="M511.99-21.534v0c-5.823 0-11.405 2.329-15.491 6.485l-361.442 366.843c-81.689 81.699-126.745 178.969-126.745 273.84 0 153.158 101.757 256.070 253.219 256.070 130.189 0 181.79-57.836 250.458-138.561 68.698 80.715 120.27 138.561 250.468 138.561 151.472 0 253.239-102.912 253.239-256.070 0-94.861-45.016-192.151-126.805-273.94l-361.402-366.763c-4.116-4.136-9.688-6.465-15.501-6.465zM261.522 838.204c-127.388 0-209.729-83.446-209.729-212.58 0-83.245 40.528-169.613 114.126-243.2l346.062-351.262 346.032 351.162c73.668 73.688 114.196 160.045 114.196 243.3 0 129.124-82.352 212.58-209.769 212.58-112.53 0-153.429-48.088-221.194-127.779l-12.76-14.948c-4.116-4.839-10.15-7.62-16.504-7.62v0c-6.345 0-12.388 2.771-16.515 7.62l-12.669 14.848c-67.785 79.752-108.715 127.88-221.274 127.88z" />
<glyph unicode="&#xe60c;" d="M1017.946 145.276v-10.394h-998.954v9.554l197.056 225.226 110.984-74.713 129.238 221.478 150.152-106.507 135.759 281.321zM242.527 769.467c69.157 0 125.377-56.219 125.377-125.49 0-69.396-56.219-125.252-125.377-125.252s-125.377 55.855-125.377 125.252c0 69.272 56.219 125.49 125.377 125.49z" />
<glyph unicode="&#xe60d;" d="M771.647 631.146c18.131 12.917 35.53 27.292 51.472 43.267 33.42 33.495 55.774 74.707 62.942 116.043 7.864 45.31-3.673 87.381-31.647 115.418-22.306 22.363-52.533 34.183-87.405 34.183-49.659 0-101.975-23.891-143.536-65.544-66.506-66.659-105.274-158.677-126.137-224.342-15.448 65.984-46.229 155.072-106.071 215.052-32.112 32.181-73.153 48.704-111.907 48.704-31.669 0-61.811-11.035-84.301-33.58-50.011-50.127-43.254-138.167 15.094-196.647 20.801-20.849 45.12-38.167 70.755-52.557h-217.132v-256.708h64.035v-449.245h768.389v449.251h64.033v256.708l-188.583-0.002zM674.407 823.459c27.742 27.802 62.355 44.398 92.6 44.398 10.703 0 25.72-2.26 36.467-13.034 26.048-26.1 11.421-86.547-31.293-129.355-43.973-44.068-103.115-74.373-154.512-94.32h-50.697c18.577 57.707 52.083 136.834 107.435 192.311zM233.79 790.697c-0.702 9.145-0.049 26.321 12.202 38.6 10.248 10.272 23.802 12.431 33.363 12.431v0c21.27 0 43.491-10.045 60.965-27.557 33.887-33.966 61.797-88.014 80.709-156.309 0.51-1.846 1.008-3.681 1.495-5.502-1.815 0.488-3.649 0.988-5.488 1.499-68.141 18.957-122.064 46.929-155.953 80.893-15.835 15.875-25.781 36.265-27.294 55.944zM447.968-10.627h-256.129v417.155h256.129v-417.155zM447.968 438.615h-320.162v128.355h320.162v-128.355zM832.163-10.627h-256.131v417.155h256.129v-417.155zM896.196 438.615h-320.164v128.355h320.164v-128.355z" />
<glyph unicode="&#xe60e;" d="M339.075-55.135c4.869-5.652 11.967-8.935 19.426-8.935h293.838c14.135 0 25.6 11.475 25.6 25.63v85.635c0 14.145-11.465 25.6-25.6 25.6h-66.379l78.035 506.298c1.124 7.389-1.014 14.918-5.873 20.58-4.889 5.672-11.967 8.935-19.456 8.935h-292.844c-14.115 0-25.6-11.455-25.6-25.6v-85.655c0-14.135 11.485-25.61 25.6-25.61h65.405l-78.025-506.298c-1.155-7.379 0.994-14.908 5.873-20.58zM466.402 493.448c1.134 7.379-1.014 14.908-5.863 20.58-4.859 5.662-11.957 8.935-19.436 8.935h-69.652v34.414h237.327l-78.005-506.278c-1.144-7.379 0.974-14.888 5.853-20.59 4.879-5.662 11.977-8.945 19.436-8.945h70.646v-34.414h-238.341l78.035 506.298zM552.428 937.372c-83.446 0-151.361-67.905-151.361-151.371 0-83.446 67.895-151.361 151.361-151.361 83.456 0 151.341 67.915 151.341 151.361 0.010 83.476-67.875 151.371-151.341 151.371zM552.428 685.879c-55.216 0-100.141 44.925-100.141 100.131 0 55.216 44.925 100.141 100.141 100.141 55.196 0 100.121-44.925 100.121-100.141 0-55.206-44.925-100.131-100.121-100.131z" />
<glyph unicode="&#xe60f;" d="M1006.421 888.762v-917.504c0-19.617-15.992-35.589-35.83-35.589h-917.273c-19.657 0-35.74 15.842-35.74 35.589v917.504c0 19.637 16.013 35.72 35.74 35.72h917.273c19.737 0.010 35.83-15.982 35.83-35.72zM907.615 34.565v444.888h-107.881c4.166-19.827 6.536-28.411 6.646-49.443 0-162.394-131.865-294.209-294.209-294.209-162.173 0-294.229 131.815-294.229 294.209 0 21.032 2.48 29.616 6.656 49.443h-108.012v-444.898h791.030zM907.615 627.802v197.783h-197.783v-197.783h197.783zM709.833 430.020c0 109.197-88.606 197.783-197.773 197.783-109.197 0-197.783-88.586-197.783-197.783s88.586-197.793 197.783-197.793c109.166 0 197.773 88.586 197.773 197.793z" />
<glyph unicode="&#xe610;" d="M369.724 679.986c-7.821 10.561-22.307 12.529-32.878 4.698l-316.296-235.661c-5.873-4.307-9.397-11.354-9.397-18.793s3.524-14.487 9.397-18.793l316.296-236.052c4.307-3.132 9.005-4.688 14.085-4.688 7.048 0 14.085 3.122 18.793 9.397 7.831 10.571 5.481 25.048-4.708 32.868l-291.228 217.269 291.228 217.259c10.19 7.439 12.529 22.317 4.708 32.497zM1013.961 286.951v501.148l-409.48-147.516v-401.438c-12.639 5.632-26.785 8.875-41.783 8.875-52.927 0-95.875-39.394-95.875-87.984 0-48.6 42.948-87.984 95.875-87.984 51.12 0 92.762 36.683 95.644 82.914h0.271v383.016l301.197 109.919v-276.761c-12.669 5.622-26.775 8.875-41.773 8.875-52.917 0-95.875-39.394-95.875-87.994 0-48.59 42.948-87.974 95.875-87.974 51.12 0 92.772 36.703 95.644 82.914h0.281z" />
<glyph unicode="&#xe611;" d="M979.466 340.781c-2.429 34.133-28.572 64.211-43.901 79.079 6.827 14.175 15.691 35.378 15.691 49.754 0 17.237 0 69.722-51.551 97.25-38.551 20.58-172.976 5.1-233.241-3.182 5.833 35.208 16.434 99.027 18.402 111.164 0.522 3.112 2.49 7.449 4.979 12.971 6.666 14.778 16.735 37.105 18.211 77.975 1.697 45.297-9.116 110.893-45.176 146.623-16.916 16.786-37.788 25.028-60.526 24.074-17.277-0.793-32.055-7.61-42.717-19.697-25.831-29.264-21.675-82.161-19.667-107.58 0.311-3.885 0.582-6.937 0.602-8.413-1.365-14.788-42.034-109.116-82.342-175.174-14.005-23.040-28.692-41.412-42.908-59.191-24.787-30.981-48.228-60.265-58.107-104.348-10.12-45.016-60.928-63.508-60.677-63.508-9.597-2.419-16.033-6.746-20.53-11.917-9.367 6.295-20.319 10.19-31.724 10.19l-145.127-0.221c-27.287-0.11-51.2-21.373-54.433-48.419l-0.512-370.266c0.803-27.628 23.923-48.098 51.561-48.098l235.962 1.827c11.565 0 22.006 3.403 29.455 12.85 4.036 5.15 6.746 10.491 8.624 17.237 26.995-5.682 99.348-21.092 130.269-23.512 21.363-1.596 26.805-3.112 36.663-5.391 6.606-1.516 14.798-3.544 29.596-6.064 13.563-2.319 31.142-3.152 50.989-3.152 18.914 0 39.886 0.653 61.44 1.375 21.434 0.703 43.108 1.426 62.926 1.426 64.452 0 93.485 16.384 154.222 59.794 37.888 27.066 41.472 60.386 37.808 83.587-1.486 9.357-4.247 17.689-7.108 24.435 20.209 13.061 42.426 39.856 42.386 85.845-0.131 35.74-11.455 57.976-22.297 71.108 15.962 15.621 36.011 44.574 32.758 89.57zM333.944-36.071c-1.215-1.536-2.008-1.616-2.53-1.636l-235.62 0.191c-8.925 0-16.675 7.519-16.926 15.932l0.392 366.482c1.566 9.166 10.702 17.047 19.988 17.077l145.187 0.241c9.919 0 20.751-8.915 22.699-18.542l69.763-358.41c2.048-8.925 0.060-17.488-2.952-21.333zM911.4 267.053l-27.297-15.621 27.929-15.009c0.924-0.482 22.147-12.398 22.307-56.42 0.030-49.272-32.447-60.155-35.96-61.179l-24.275-6.415 14.597-20.43c0.080-0.11 8.292-11.927 10.772-27.598 3.172-19.978-4.598-36.322-23.693-49.985-56.43-40.307-79.27-53.338-134.094-53.338-20.189 0-42.245-0.723-64.070-1.456-40.528-1.335-82.452-2.721-105.432 1.195-13.844 2.389-21.494 4.156-27.668 5.582-10.732 2.46-17.84 4.106-41.793 5.913-31.684 2.49-115.592 20.189-132.658 23.833l-67.765 348.22c0.241 1.667 0.492 3.343 0.211 5.090-1.697 10.451-1.094 13.523-0.703 14.296 0.020 0.020 0.743 0.653 4.548 1.677 2.851 0.984 70.174 24.666 84.671 89.108 8.142 36.282 27.206 60.115 51.341 90.303 14.226 17.759 30.318 37.868 45.458 62.795 36.091 59.171 87.371 168.86 87.371 192.793 0 2.46-0.281 6.455-0.683 11.545-1.486 19.044-5.010 63.659 11.093 81.93 4.498 5.090 10.31 7.64 18.332 7.991 13.171 0.572 24.405-3.996 34.555-14.065 22.759-22.558 36.804-71.058 34.947-120.732-1.245-34.083-8.995-51.22-15.199-65.004-3.243-7.188-6.315-13.975-7.58-21.584-2.751-16.936-22.267-134.495-22.267-134.495l-3.915-23.572 23.612 3.604c82.211 12.529 209.549 24.014 235.279 10.28 33.23-17.739 33.23-50.788 33.23-66.68 0-7.459-9.176-29.576-17.749-45.538l-6.736-12.599 11.073-9.035c10.973-8.965 39.856-37.918 41.723-64.1 3.544-49.313-32.105-70.485-33.511-71.299z" />
<glyph unicode="&#xe612;" d="M429.136 885.288c0 23.12-18.643 42.034-41.452 42.034h-331.495c-22.779 0-41.422-18.914-41.422-42.034v-336.153c0-23.12 18.643-42.034 41.422-42.034h331.505c22.799 0 41.452 18.914 41.452 42.034v336.153zM97.651 843.264h248.601v-252.105h-248.601v252.105zM1009.232 885.288c0 23.12-18.613 42.034-41.452 42.034h-331.455c-22.829 0-41.462-18.914-41.462-42.034v-336.153c0-23.12 18.623-42.034 41.462-42.034h331.455c22.829 0 41.452 18.914 41.452 42.034v336.153zM677.768 843.264h248.581v-252.105h-248.581v252.105zM429.136 311.025c0 23.1-18.643 42.024-41.452 42.024h-331.495c-22.779 0-41.422-18.924-41.422-42.024v-336.153c0-23.12 18.643-42.024 41.422-42.024h331.505c22.799 0 41.452 18.904 41.452 42.024v336.153zM97.651 268.991h248.601v-252.105h-248.601v252.105zM1009.232 311.025c0 23.1-18.613 42.024-41.452 42.024h-331.455c-22.829 0-41.462-18.924-41.462-42.024v-336.153c0-23.12 18.623-42.024 41.462-42.024h331.455c22.829 0 41.452 18.904 41.452 42.024v336.153zM677.768 268.991h248.581v-252.105h-248.581v252.105z" />
<glyph unicode="&#xe613;" d="M269.443 830.815c0-54.486-44.17-98.655-98.655-98.655s-98.655 44.17-98.655 98.655c0 54.486 44.17 98.655 98.655 98.655s98.655-44.17 98.655-98.655zM60.717 386.46h9.788v-195.684c0-26.915 22.016-48.911 48.931-48.911h102.721c26.915 0 48.931 21.996 48.931 48.911v11.425c-8.965 17.127-14.677 36.683-14.677 57.073v256c0 49.734 30.168 92.953 73.387 111.696v19.576c0 26.895-22.016 48.921-48.921 48.921h-220.16c-26.895 0-48.921-22.016-48.921-48.921v-211.175c0-26.895 21.203-48.911 48.921-48.911zM952.691 830.815c0-54.486-44.17-98.655-98.655-98.655s-98.655 44.17-98.655 98.655c0 54.486 44.17 98.655 98.655 98.655s98.655-44.17 98.655-98.655zM694.232 647.359v-19.566c43.219-18.753 73.357-61.962 73.357-111.696v-255.187c0-20.38-4.879-39.956-14.667-57.083v-11.415c0-26.915 22.016-48.921 48.941-48.921h102.721c26.905 0 48.921 22.006 48.921 48.921v195.664h9.768c26.925 0 48.921 22.016 48.921 48.931v210.352c0 26.915-21.996 48.931-48.921 48.931h-220.14c-26.895-0.010-48.901-22.016-48.901-48.931zM330.591 515.293v0-256.020c0-26.915 22.016-48.921 48.921-48.921h18.763v-230.741c0-26.905 22.006-48.911 48.921-48.911h131.263c26.905 0 48.921 22.006 48.921 48.911v231.544h18.743c26.925 0 48.941 22.006 48.941 48.921v255.197c0 26.915-22.016 48.931-48.941 48.931h-266.611c-27.718 0-48.921-22.016-48.921-48.911zM625.754 718.296c0-62.592-50.741-113.333-113.333-113.333s-113.333 50.741-113.333 113.333c0 62.592 50.741 113.333 113.333 113.333s113.333-50.741 113.333-113.333z" />
<glyph unicode="&#xe614;" d="M808.358-41.362c0-16.786-11.384-30.519-25.299-30.519s-25.299 13.734-25.299 30.519v942.883c0 16.786 11.384 30.519 25.299 30.519s25.299-13.734 25.299-30.519v-942.883zM266.24-41.362c0-16.786-11.384-30.519-25.299-30.519s-25.299 13.734-25.299 30.519v942.883c0 16.786 11.384 30.519 25.299 30.519s25.299-13.734 25.299-30.519v-942.883z" />
<glyph unicode="&#xe615;" d="M160.949-71.881c-5.883 0-11.746 0.914-17.207 2.771-14.246 4.859-23.351 15.3-23.351 26.765v944.861c0 11.475 9.106 21.896 23.351 26.755 14.195 4.829 31.021 3.263 43.128-4.046l778.099-472.445c9.216-5.632 14.597-13.924 14.597-22.669 0-8.784-5.361-17.107-14.597-22.709l-778.099-472.456c-7.399-4.488-16.615-6.827-25.921-6.827zM191.438 839.489v-818.798l674.234 409.409-674.234 409.389z" />
<glyph unicode="&#xe616;" d="M512 251.844c116.716 0 211.647 102.872 211.647 229.286v229.306c0 126.444-94.921 229.316-211.647 229.316s-211.667-102.872-211.667-229.316v-229.306c0-126.414 94.951-229.286 211.667-229.286zM335.611 710.435c0 106.988 79.129 194.038 176.389 194.038 97.25 0 176.369-87.040 176.369-194.038v-229.306c0-106.978-79.119-194.028-176.369-194.028-97.26 0-176.389 87.050-176.389 194.028v229.306zM829.49 486.711v82.623c0 9.758-7.861 17.649-17.649 17.649-9.728 0-17.629-7.891-17.629-17.649v-82.623c0-165.547-129.235-305.433-282.212-305.433-152.988 0-282.232 139.886-282.232 305.433v82.623c0 9.758-7.891 17.649-17.639 17.649-9.738 0-17.629-7.891-17.629-17.649v-82.623c0-181.459 133.010-329.838 299.851-339.747v-177.343h-194.018c-9.748 0-17.639-7.891-17.639-17.659 0-9.728 7.891-17.619 17.639-17.619h423.314c9.768 0 17.669 7.891 17.669 17.619 0 9.768-7.901 17.659-17.669 17.659h-194.018v177.343c166.862 9.899 299.861 158.278 299.861 339.747z" />
<glyph unicode="&#xe617;" d="M56.681 802.615h13.101v-140.92c0-3.594-2.952-6.556-6.546-6.556v0c-3.614 0-6.556 2.962-6.556 6.556v140.92zM63.227 653.834c-4.347 0-7.881 3.534-7.881 7.871v142.236h15.752v-142.236c0-4.337-3.534-7.871-7.871-7.871zM57.987 801.31v-139.605c0-2.891 2.359-5.23 5.24-5.23s5.23 2.339 5.23 5.23v139.605h-10.471zM321.355 255.468l-198.746 276.691 67.022 67.012 288.276-230.902-156.552-112.801zM144.053 530.412l181.037-252.024 125.721 90.564-259.965 208.253-46.793-46.793zM867.489 56.22h-284.22l103.816 144.525 180.405-144.525zM615.233 72.624h205.573l-130.49 104.498-75.083-104.498zM241.734 594.030l0.472-0.462-114.246-114.246-0.472 0.482c-13.493 13.493-18.934 32.507-16.776 52.093l78.928 78.918c19.566 2.168 38.601-3.283 52.093-16.786zM127.97 477.465l-1.416 1.395c-13.382 13.362-19.476 32.246-17.157 53.178l0.050 0.462 0.321 0.331 79.26 79.25 0.462 0.050c20.57 2.289 40.006-3.996 53.158-17.147l1.416-1.416-0.954-0.934-115.14-115.17zM111.977 531.275c-2.068-19.667 3.594-37.436 15.982-50.096l112.379 112.369c-12.479 12.198-30.68 18.020-50.096 16.013l-78.266-78.286zM104.568 694.192l76.84-76.83-77.262-77.232-76.81 76.82c-21.233 21.243-21.243 55.999 0 77.242v0c6.214 6.214 13.593 10.611 21.434 13.192v-45.678c0-7.961 6.495-14.446 14.467-14.446s14.456 6.485 14.456 14.446v47.164c9.859-2.158 19.245-7.037 26.875-14.677zM104.147 538.253l-77.744 77.764c-21.815 21.795-21.815 57.304 0 79.099 6.214 6.224 13.593 10.762 21.956 13.503l1.737 0.572v-47.485c0-7.238 5.893-13.141 13.151-13.141 7.248 0 13.131 5.893 13.131 13.141v48.811l1.606-0.361c10.461-2.269 19.978-7.469 27.528-15.029l77.764-77.764-79.129-79.109zM47.445 705.506c-7.258-2.64-13.693-6.756-19.185-12.248-20.781-20.791-20.781-54.603 0-75.364l75.886-75.917 75.384 75.374-75.886 75.907c-6.807 6.807-15.29 11.615-24.636 13.944v-45.498c0-8.694-7.088-15.772-15.772-15.772-8.704 0-15.782 7.078-15.782 15.772v43.801zM965.823 802.615h-13.101v-140.92c0-3.594 2.941-6.556 6.536-6.556v0c3.604 0 6.556 2.962 6.556 6.556v140.92zM959.267 653.834c-4.337 0-7.861 3.534-7.861 7.871v142.236h15.741v-142.236c0-4.337-3.534-7.871-7.881-7.871zM954.037 801.31v-139.605c0-2.891 2.339-5.23 5.23-5.23s5.24 2.339 5.24 5.23v139.605h-10.471zM558.020 56.22h-478.128l753.242 542.7 66.751-66.761-341.865-475.939zM130.711 72.624h418.896l328.835 457.798-47.034 47.054-700.697-504.852zM780.77 594.030l-0.482-0.462 114.256-114.246 0.472 0.482c13.493 13.493 18.934 32.507 16.765 52.093l-78.918 78.918c-19.576 2.168-38.601-3.283-52.093-16.786zM894.544 477.445l-0.934 0.954-115.19 115.17 1.436 1.416c13.151 13.151 32.587 19.426 53.158 17.147l0.462-0.050 79.581-79.581 0.050-0.462c2.319-20.932-3.775-39.816-17.147-53.178l-1.416-1.416zM782.165 593.549l112.369-112.369c12.378 12.68 18.051 30.429 16.003 50.096l-78.286 78.286c-19.366 2.008-37.597-3.805-50.086-16.013zM917.936 694.192l-76.82-76.83 77.242-77.232 76.81 76.82c21.243 21.243 21.243 55.999 0 77.242v0c-6.204 6.214-13.573 10.611-21.424 13.192v-45.678c0-7.961-6.495-14.446-14.477-14.446-7.951 0-14.456 6.485-14.456 14.446v47.164c-9.869-2.158-19.255-7.037-26.875-14.677zM918.357 538.253l-79.109 79.099 0.934 0.954 76.81 76.81c7.57 7.56 17.077 12.76 27.548 15.029l1.596 0.361v-48.811c0-7.238 5.883-13.141 13.131-13.141 7.258 0 13.151 5.893 13.151 13.141v47.485l1.737-0.572c8.333-2.741 15.741-7.278 21.956-13.503 10.531-10.521 16.324-24.566 16.324-39.555 0-14.979-5.793-29.033-16.324-39.544l-77.754-77.754zM842.983 617.362l75.374-75.374 75.896 75.917c10.019 10.009 15.531 23.391 15.531 37.667 0 14.286-5.512 27.658-15.531 37.697-5.501 5.481-11.937 9.608-19.195 12.248v-43.801c0-8.694-7.078-15.772-15.782-15.772-8.674 0-15.772 7.078-15.772 15.772v45.498c-9.326-2.329-17.82-7.138-24.636-13.944l-75.886-75.907z" />
<glyph unicode="&#xe618;" d="M1010.477 578.49l-185.334 185.344c-8.051 8.041-21.082 8.041-29.114 0-8.041-8.051-8.041-21.072 0-29.124l150.187-150.177h-691.612c-136.272 0-247.115-110.853-247.115-247.115 0-136.272 110.853-247.115 247.115-247.115 11.384 0 20.59 9.206 20.59 20.6 0 11.384-9.206 20.59-20.59 20.59-113.544 0-205.934 92.391-205.934 205.934s92.391 205.934 205.934 205.934h691.612l-150.187-150.187c-8.041-8.051-8.041-21.092 0-29.124 4.016-4.016 9.296-6.024 14.557-6.024 5.281 0 10.541 1.998 14.557 6.024l185.334 185.344c8.051 8.031 8.051 21.042 0 29.094z" />
<glyph unicode="&#xe619;" d="M179.029 76.609c-42.566 0-82.583 16.575-112.71 46.672-62.133 62.133-62.133 163.268 0 225.411 30.128 30.088 70.144 46.672 112.71 46.672s82.603-16.585 112.71-46.672c62.133-62.143 62.133-163.278 0-225.411-30.108-30.098-70.134-46.672-112.71-46.672zM179.029 337.227c-27.046 0-52.465-10.551-71.58-29.646-39.464-39.484-39.464-103.705 0-143.179 19.115-19.105 44.534-29.646 71.58-29.646s52.475 10.541 71.58 29.646c39.464 39.474 39.464 103.695 0 143.179-19.095 19.095-44.534 29.646-71.58 29.646zM848.826 76.609c-42.566 0-82.603 16.575-112.72 46.672-62.123 62.133-62.123 163.268 0 225.411 30.118 30.088 70.144 46.672 112.72 46.672s82.583-16.585 112.72-46.672c62.133-62.143 62.133-163.278 0-225.411-30.148-30.098-70.154-46.672-112.72-46.672zM848.826 337.227c-27.046 0-52.475-10.551-71.59-29.646-39.464-39.484-39.464-103.705 0-143.179 19.115-19.105 44.544-29.646 71.59-29.646 27.036 0 52.465 10.541 71.58 29.646 39.474 39.474 39.474 103.695 0 143.179-19.125 19.095-44.544 29.646-71.58 29.646zM513.717 464.786c-42.576 0-82.613 16.585-112.72 46.672-30.088 30.118-46.672 70.134-46.672 112.7-0.020 42.586 16.565 82.603 46.672 112.7 30.118 30.118 70.144 46.692 112.72 46.692 42.566 0 82.593-16.575 112.69-46.692 30.098-30.108 46.682-70.114 46.682-112.68 0-42.586-16.585-82.623-46.682-112.72s-70.124-46.672-112.69-46.672zM513.717 725.394c-27.046 0-52.465-10.511-71.59-29.636s-29.656-44.554-29.656-71.58c0-27.066 10.531-52.475 29.656-71.6 19.125-19.115 44.544-29.656 71.59-29.656 27.026 0 52.455 10.541 71.57 29.656 19.105 19.125 29.666 44.534 29.666 71.6 0 27.016-10.561 52.445-29.666 71.58-19.115 19.105-44.544 29.636-71.57 29.636zM271.149 299.048c-5.983 0-12.037 1.857-17.237 5.692-12.91 9.517-15.671 27.728-6.124 40.649l150.377 203.876c9.517 12.92 27.738 15.691 40.669 6.154 12.92-9.537 15.681-27.748 6.134-40.659l-150.387-203.896c-5.692-7.72-14.507-11.816-23.432-11.816zM756.716 299.048c-8.935 0-17.709 4.086-23.421 11.786l-150.819 203.907c-9.547 12.9-6.817 31.112 6.074 40.659 12.991 9.547 31.162 6.797 40.689-6.074l150.819-203.896c9.537-12.9 6.817-31.132-6.084-40.669-5.22-3.855-11.274-5.712-17.257-5.712z" />
<glyph unicode="&#xe61a;" d="M9.437 329.668c-11.274-52.927 20.952-125.46 50.116-150.528v250.94c-29.154-25.058-41.532-60.787-50.116-100.412zM867.157 452.869c-17.528 0-33.993-3.423-49.423-8.885-7.74 132.026-121.555 237.036-261.983 237.036-89.751 0-198.435-35.047-245.86-100.352v-401.528h557.277c79.4 0 143.721 61.259 143.721 136.794 0 75.676-64.331 136.935-143.731 136.935zM209.779 179.14h50.066v351.292h-50.066v-351.292zM109.608 179.14h50.056v301.176h-50.056v-301.176z" />
<glyph unicode="&#xe61b;" d="M1000.167 456.041c13.041-37.707 19.486-76.489 19.446-131.644-0.371-55.928-19.717-121.444-59.161-180.927-7.66-11.585-18.854-16.595-32.437-14.346-13.382 2.189-22.237 10.441-25.851 23.632-2.721 9.899-0.512 19.004 5.17 27.568 22.026 33.411 36.794 69.793 43.289 109.307 12.318 74.973-1.526 144.695-42.817 208.655-5.722 8.905-8.523 18.171-5.642 28.471 3.584 12.9 12.147 21.082 25.399 23.462 13.924 2.5 25.088-2.61 32.909-14.256 16.765-24.907 29.927-51.581 39.695-79.922zM913.147 334.798c-0.331-46.451-14.456-93.345-42.877-135.811-7.8-11.696-20.671-16.876-33.993-14.125-12.509 2.57-22.377 12.73-24.907 26.002-1.787 9.336 0.883 17.679 6.104 25.51 13.975 20.992 23.452 43.942 27.839 68.789 8.835 49.805-0.532 96.085-28.21 138.511-7.178 11.023-8.584 22.408-2.57 34.153 11.204 21.966 41.462 23.532 55.527 2.952 12.971-19.034 22.97-39.534 30.248-61.4 8.674-25.941 12.82-52.646 12.84-84.58zM800.718 388.066c31.031-89.098-28.552-185.284-121.876-197.933-7.861-1.074-15.882-1.335-23.863-1.335-77.212-0.11-154.403-0.070-231.625-0.070-76.86 0-153.761-0.020-230.631 0-87.642 0.010-159.955 58.268-178.728 143.952-20.992 95.794 43.691 194.58 140.047 213.133 8.563 1.646 12.258 5.15 15.551 13.111 38.209 92.692 106.526 150.317 205.151 168.277 146.181 26.654 285.043-71.7 311.497-218.443 0.984-5.501 1.857-11.073 2.189-16.645 0.221-3.735 1.777-5.060 5.22-5.993 52.736-14.005 89.138-46.562 107.068-98.053z" />
<glyph unicode="&#xe61c;" d="M939.008 932.041c5.883 0 11.746-0.914 17.207-2.771 14.246-4.859 23.351-15.3 23.351-26.765v-944.851c0-11.475-9.106-21.896-23.351-26.755-14.195-4.829-31.021-3.263-43.128 4.046l-778.099 472.445c-9.216 5.632-14.597 13.924-14.597 22.669 0 8.784 5.361 17.107 14.597 22.709l778.099 472.435c7.399 4.498 16.615 6.837 25.921 6.837zM908.519 20.671v818.798l-674.234-409.409 674.234-409.389zM69.793 901.522c0 16.786 11.384 30.519 25.299 30.519s25.299-13.734 25.299-30.519v-942.883c0-16.786-11.384-30.519-25.299-30.519s-25.299 13.734-25.299 30.519v942.883z" />
<glyph unicode="&#xe61d;" d="M110.351-71.881c-5.883 0-11.746 0.914-17.207 2.771-14.246 4.859-23.351 15.3-23.351 26.765v944.861c0 11.465 9.106 21.896 23.351 26.755 14.195 4.839 31.021 3.273 43.128-4.046l778.099-472.445c9.216-5.632 14.597-13.934 14.597-22.669 0-8.784-5.361-17.107-14.597-22.709l-778.099-472.456c-7.399-4.488-16.615-6.827-25.921-6.827zM140.84 839.499v-818.798l674.234 409.409-674.234 409.389zM979.566-41.362c0-16.786-11.384-30.519-25.299-30.519-13.924 0-25.309 13.734-25.309 30.519v942.883c0 16.786 11.384 30.519 25.309 30.519 13.914 0 25.299-13.734 25.299-30.519v-942.883z" />
<glyph unicode="&#xe61e;" d="M13.814 101.205c15.982-2.018 32.306-3.112 48.791-3.112 95.804-0.181 183.959 34.404 253.862 92.441-89.5 2.108-164.954 65.355-190.946 152.164 12.449-2.62 25.319-4.126 38.44-4.206 18.673-0.090 36.673 2.429 53.83 7.319-93.525 20.681-164.021 109.448-164.021 215.181 0 0.914 0 1.847 0 2.761 27.588-16.645 59.051-26.744 92.622-28.26-54.764 39.625-90.855 106.918-90.855 182.623 0 40.036 10.089 77.392 27.678 109.357 100.854-133.331 251.502-221.806 421.336-232.829-3.534 15.902-5.291 32.467-5.291 49.373 0 119.527 91.517 214.92 204.408 213.062 58.78-1.004 111.957-28.009 149.213-70.405 46.612 8.915 90.343 26.072 129.797 50.045-15.229-49.875-47.696-91.427-89.921-117.429 41.392 4.628 80.755 15.561 117.429 32.136-27.417-42.647-62.093-79.902-102.039-109.688 0.422-9.256 0.592-18.512 0.592-27.768 0-283.809-205.663-611.117-581.662-610.926-115.341-0.090-222.83 36.091-313.264 98.163z" />
<glyph unicode="&#xe61f;" d="M992.407 686.512c-4.608 0-9.718-1.305-15.099-4.066l-953.294-490.004c-20.088-10.33-18.051-18.793 4.538-18.793h944.218c22.598 0 41.060 18.462 41.060 41.070v445.45c-0.010 16.545-8.824 26.343-21.424 26.343zM931.709 255.769h-214.468v200.674l214.458 110.261v-310.935z" />
<glyph unicode="&#xe620;" d="M512 939.068c-280.656 0-508.988-228.332-508.988-508.988s228.332-508.988 508.988-508.988c280.676 0 509.008 228.332 509.008 508.988s-228.342 508.988-509.008 508.988zM889.043 141.573c-16.414 12.579-59.904 41.944-131.885 66.249 15.701 62.083 24.867 131.514 26.082 205.312h203.395c-3.614-101.908-39.394-195.715-97.591-271.561zM37.366 413.134h203.395c1.235-73.808 10.391-143.24 26.092-205.312-71.991-24.305-115.471-53.67-131.895-66.249-58.177 75.846-93.977 169.653-97.591 271.561zM134.044 717.463c15.511-12.077 59.011-42.024 132.397-66.841-15.44-61.651-24.466-130.429-25.68-203.555h-203.395c3.594 101.356 39.032 194.741 96.678 270.396zM528.956 613.396c78.216 1.466 143.35 12.449 195.925 27.146 14.567-58.699 23.211-124.235 24.435-193.476h-220.361v166.33zM528.956 647.329v256.472c79.41-11.274 148.139-100.824 186.92-230.31-49.955-14.055-112.108-24.696-186.92-26.162zM495.034 903.8v-256.472c-74.672 1.486-136.845 12.208-186.88 26.313 38.802 129.385 107.51 218.875 186.88 230.159zM495.034 613.396v-166.33h-220.351c1.235 69.24 9.879 134.787 24.445 193.476 52.575-14.697 117.69-25.69 195.905-27.146zM274.683 413.134h220.351v-168.237c-77.995-1.466-142.979-12.388-195.453-27.016-14.838 59.151-23.662 125.269-24.897 195.253zM495.034 210.954v-254.574c-79.039 11.224-147.526 100.011-186.408 228.563 49.865 13.975 111.857 24.556 186.408 26.012zM528.956-43.63v254.584c74.431-1.476 136.453-12.117 186.368-26.142-38.872-128.482-107.339-217.208-186.368-228.442zM528.956 244.897v168.237h220.351c-1.235-69.983-10.059-136.102-24.897-195.253-52.465 14.617-117.449 25.54-195.453 27.016zM783.24 447.056c-1.215 73.126-10.24 141.914-25.67 203.555 73.377 24.827 116.887 54.764 132.397 66.841 57.645-75.656 93.074-169.040 96.668-270.406h-203.395zM868.392 743.695c-13.724-10.431-53.389-37.276-119.959-60.115-27.076 90.142-68.357 162.414-118.583 206.758 93.776-24.034 176.409-76.107 238.542-146.643zM394.17 890.338c-50.216-44.303-91.477-116.515-118.553-206.577-66.429 22.809-106.195 49.574-119.979 59.984 62.143 70.515 144.745 122.559 238.532 146.593zM156.612 115.31c14.557 10.943 54.031 37.195 119.477 59.573 27.096-89.349 68.156-160.989 118.081-205.051-93.294 23.903-175.536 75.535-237.558 145.478zM629.84-30.168c49.885 44.042 90.945 115.632 118.021 204.86 65.275-22.337 104.88-48.52 119.507-59.392-62.032-69.933-144.253-121.565-237.528-145.468z" />
<glyph unicode="&#xe621;" d="M999.916 668.21c17.569-76.318 17.388-159.603 17.388-238.13s-0.060-161.822-17.629-238.070c-12.328-53.569-56.129-93.124-108.885-98.997-124.828-13.965-251.221-14.015-377.153-13.965-125.872-0.060-252.265 0-377.203 13.965-52.706 5.873-96.497 45.427-108.835 98.997-17.559 76.248-17.559 159.543-17.559 238.070s0.231 161.822 17.8 238.13c12.338 53.519 56.069 93.074 108.825 98.936 124.878 13.965 251.342 14.015 377.213 13.965 125.811 0.060 252.265 0 377.153-13.965 52.756-5.873 96.547-45.427 108.885-98.936zM383.699 273.729c107.088 55.487 213.123 110.512 320.261 166.069-107.43 56.019-213.474 111.325-320.261 167.053 0-111.455 0-221.736 0-333.121z" />
</font>
</defs>
</svg>
